<svg id="Layer_1" data-name="Layer 1" xmlns="http://www.w3.org/2000/svg" xmlns:xlink="http://www.w3.org/1999/xlink" viewBox="0 0 811.57 324.54"><defs><style>.cls-1{fill:none;}.cls-2{clip-path:url(#clip-path);}.cls-3{fill:#fff;}.cls-4{clip-path:url(#clip-path-2);}</style><clipPath id="clip-path"><rect class="cls-1" x="24.62" y="23.97" width="762.8" height="145.64"/></clipPath><clipPath id="clip-path-2"><rect class="cls-1" x="85.62" y="205.48" width="640.33" height="90.13"/></clipPath></defs><title>Artboard 1</title><g class="cls-2"><path class="cls-3" d="M787.42,146.58H750.27V25.78H728.73V167.91h58.69Zm-73.51,0H676.76V25.78H655.22V167.91h58.69Zm-107.7-32.21h-16l8-56Zm3.2,20.87,5,32.67H637.1L613.16,25.78H583.53L559.25,167.91h22.43l5.24-32.67Zm-89.7-27.56v60.23h21.54V25.78H519.71V86.13h-26V25.78H472.18V167.91h21.54V107.68ZM392.06,167.91H413.6V108.36l28.95-82.69H418.73l-15.84,51-16-51h-23.7l28.83,82.69ZM271.6,25.67V167.91h21.54V76.83l29.63,91.08h23.14V25.67H324.36v95.59L295.78,25.67Zm-93.57,0V167.91h21.54V76.83l29.63,91.08h23.14V25.67H230.8v95.59L202.21,25.67ZM136.66,135.36a11.78,11.78,0,0,1-3.59,8.67,11.93,11.93,0,0,1-8.72,3.58,12.11,12.11,0,0,1-8.78-3.58,11.68,11.68,0,0,1-3.64-8.67V57.54a11.68,11.68,0,0,1,3.64-8.67,12.11,12.11,0,0,1,8.78-3.58,11.93,11.93,0,0,1,8.72,3.58,11.78,11.78,0,0,1,3.59,8.67ZM100.87,33.89A32.65,32.65,0,0,0,90.84,58v77.58a34,34,0,0,0,34.08,34,33.13,33.13,0,0,0,24.16-9.92,32.64,32.64,0,0,0,10-24.11V58a34.06,34.06,0,0,0-34.19-34,33,33,0,0,0-24,9.92M72,26H51V136.15a11.22,11.22,0,0,1-3.59,8.51,13.76,13.76,0,0,1-8.83,3.74,32.65,32.65,0,0,1-4.56.11,34.34,34.34,0,0,1-6.27-.68l-3.07,20A43.34,43.34,0,0,0,38,169.5a33.09,33.09,0,0,0,24.1-9.81,32.37,32.37,0,0,0,10-24Z"/></g><g class="cls-4"><path class="cls-3" d="M710.31,240.65a7.45,7.45,0,0,1-2.21,5.41,7.3,7.3,0,0,1-5.37,2.24h-8V220.15h8q7.57,0,7.58,7.66Zm-28.85-34v87.95h13.26V261.43h8.85l8,33.13H726l-9.83-38.4a20.53,20.53,0,0,0,7.09-15.79V227.6q0-9.56-4.56-14.89-5.19-6.11-16.28-6.1Zm-9.13,87.95V281.22H647.84v-24h17.9V243.88h-17.9v-24h24.49V206.54H634.57v88Zm-61.2-53.91a7.45,7.45,0,0,1-2.21,5.41,7.26,7.26,0,0,1-5.37,2.24h-8V220.15h8a7.4,7.4,0,0,1,5.51,2.11,7.56,7.56,0,0,1,2.07,5.55Zm-28.85-34v87.95h13.27V261.43h7.65a19.84,19.84,0,0,0,14.7-6.18A20.47,20.47,0,0,0,624,240.37V227.6q0-9.06-5.34-14.89-5.76-6.11-15.44-6.1Zm-25.55,67.8a7.55,7.55,0,0,1-7.58,7.58,7.41,7.41,0,0,1-5.4-2.21,7.23,7.23,0,0,1-2.25-5.37V226.26a7.27,7.27,0,0,1,2.25-5.37,7.45,7.45,0,0,1,5.4-2.21,7.55,7.55,0,0,1,7.58,7.58Zm-22-62.78a20.25,20.25,0,0,0-6.17,14.91v48a20.37,20.37,0,0,0,6.1,14.88,20.12,20.12,0,0,0,14.88,6.18,21,21,0,0,0,21.06-21.06v-48a21,21,0,0,0-35.87-14.91m-15.3,69.73H496.51V206.61H483.25v87.95h36.14Zm-45.27,13.2V281.22h-24.5v-24h17.9V243.88h-17.9v-24h24.5V206.54H436.36v88Zm-64.85,0,16-87.95H411.36l-11.12,68.55-11-68.55H375.29L391,294.56Zm-43.1,0V281.22h-24.5v-24h17.9V243.88h-17.9v-24h24.5V206.54H328.41v88Zm-77.84-74.48h8a7.16,7.16,0,0,1,5.3,2.25,7.41,7.41,0,0,1,2.21,5.41v46a7.52,7.52,0,0,1-2.17,5.37,7.09,7.09,0,0,1-5.34,2.28h-8Zm28.43,7.44a20.42,20.42,0,0,0-6.07-14.81,20,20,0,0,0-14.78-6.17H275.06v88h20.85a20,20,0,0,0,14.74-6.18,20.41,20.41,0,0,0,6.11-14.88ZM226.42,220H232a8.41,8.41,0,0,1,6.39,2.6q2.65,2.8,2.66,8.28a17.12,17.12,0,0,1-.77,5.55q-2.1,6-8.28,6h-5.55Zm0,35.17H232q4.91,0,7.44,3.09,2.81,3.36,2.81,10.74a15.18,15.18,0,0,1-.92,5.47q-2.6,7-9.33,6.95h-5.55Zm10.25,39.38a20.35,20.35,0,0,0,17-10.39A29.45,29.45,0,0,0,256.82,270a35.51,35.51,0,0,0-.49-6.11,26.25,26.25,0,0,0-3-8.7,15.45,15.45,0,0,0-7.51-6.67,13.29,13.29,0,0,0,4.63-3.44q4.69-5.32,4.7-14.18a30.7,30.7,0,0,0-1.26-9.33q-2.33-7.37-7.72-10.88A25.3,25.3,0,0,0,232,206.54H212.11v88Zm-33.69,0V281.22h-24.5v-24h17.9V243.88h-17.9v-24H203V206.54H165.22v88ZM133.7,253.67l-6.94-47.06h-13.9l-6.39,47.1-7-47.1H85.62l14.73,87.95H113l7.06-48.39,7.57,48.39H140.3l13.76-87.95H140.14Z"/></g></svg>